<?xml version="1.0" encoding="UTF-8"?>
<svg id="Layer_2" data-name="Layer 2" xmlns="http://www.w3.org/2000/svg" viewBox="0 0 662.21 254.56">
  <defs>
    <style>
      .cls-1 {
        fill: #fff;
      }

      .cls-2 {
        fill: #005be6;
      }
    </style>
  </defs>
  <g id="Layer_1-2" data-name="Layer 1">
    <g>
      <path class="cls-2" d="M241.31,203.95h53.56c-5.62,22.1-66.61,43.53-142.82,49.21C70.55,259.23,2.5,244.98.07,221.32c-2.28-22.18,53.99-44.76,128.24-52.48C54.06,161.12-2.21,138.54.07,116.35c1.51-14.68,28.31-25.74,67.91-30.56C28.38,80.96,1.58,69.9.07,55.22-2.36,31.57,61.74,7.47,143.24,1.4c81.51-6.07,149.55,8.19,151.98,31.84.17,1.69.01,3.38-.48,5.07h-53.43v33.11c-20.89,6.39-46.62,11.46-74.95,14.37,28.33,2.91,54.06,7.98,74.95,14.37v66.68c-4.3.75-8.8,1.42-13.49,2,4.69.58,9.19,1.25,13.49,2v33.11Z"/>
      <path class="cls-1" d="M347.85,56.79c-11.01-5.66-24.21-8.49-39.58-8.49h-56.97v145.65h56.66c15.44,0,28.69-2.84,39.74-8.51,11.05-5.68,19.5-13.96,25.37-24.85,5.86-10.89,8.8-24.04,8.8-39.45s-2.92-28.61-8.74-39.51c-5.83-10.89-14.25-19.17-25.26-24.83ZM343.99,146.34c-3.22,6.82-7.95,11.94-14.19,15.37-6.24,3.43-13.84,5.14-22.81,5.14h-23.88v-91.44h23.88c9,0,16.61,1.71,22.83,5.14,6.22,3.43,10.94,8.54,14.17,15.34,3.22,6.8,4.83,15.21,4.83,25.24s-1.61,18.39-4.83,25.21Z"/>
      <polygon class="cls-1" points="530.52 48.3 492.27 48.3 453 89.93 429.88 115.38 429.88 90.29 429.88 48.3 398.07 48.3 398.07 193.95 429.88 193.95 429.88 152.62 452.28 128.87 470.54 156.98 495.14 193.95 532.16 193.95 473.83 107.84 530.52 48.3"/>
      <path class="cls-1" d="M629.89,139.74c-1.02,6.68-3.22,12.27-6.6,16.77-3.38,4.5-7.48,7.83-12.32,10-4.84,2.17-10.06,3.25-15.65,3.25-7.67,0-14.37-1.88-20.1-5.65-5.73-3.77-10.18-9.29-13.35-16.57-3.17-7.28-4.76-16.12-4.76-26.52s1.56-19.13,4.68-26.39,7.53-12.74,13.22-16.44c5.69-3.7,12.36-5.55,20-5.55,5.52,0,10.58.93,15.16,2.79,4.59,1.86,8.53,4.8,11.84,8.82,3.31,4.02,5.74,9.15,7.31,15.39h32.52c-2.22-11.69-6.33-21.61-12.35-29.76-6.02-8.15-13.61-14.33-22.78-18.54-9.17-4.21-19.6-6.32-31.3-6.32-14.11,0-26.55,3.09-37.31,9.26-10.76,6.17-19.11,14.98-25.06,26.44-5.95,11.46-8.92,24.89-8.92,40.3s2.97,28.83,8.92,40.38c5.95,11.54,14.23,20.41,24.85,26.62,10.62,6.2,22.7,9.31,36.23,9.31,11.56,0,22.22-2.31,31.99-6.93,9.77-4.62,17.84-11.28,24.21-19.97,6.38-8.69,10.33-18.92,11.86-30.68h-32.32Z"/>
    </g>
  </g>
</svg>