<?xml version="1.0" encoding="UTF-8"?>
<svg id="Layer_2" data-name="Layer 2" xmlns="http://www.w3.org/2000/svg" viewBox="0 0 1185.89 254.55">
  <defs>
    <style>
      .cls-1 {
        fill: #fff;
      }

      .cls-2 {
        fill: #005be6;
      }
    </style>
  </defs>
  <g id="Layer_1-2" data-name="Layer 1">
    <g>
      <path class="cls-2" d="M261.24,64.3v-5.73h12.14c-3.65,1.97-7.71,3.88-12.14,5.73Z"/>
      <path class="cls-2" d="M261.24,184.22v-8.92c8.85,2.53,16.24,5.52,21.84,8.92h-21.84Z"/>
      <path class="cls-2" d="M241.24,204.22h53.55c-6.07,22-66.86,43.28-142.74,48.93C70.55,259.22,2.5,244.97.07,221.31c-2.28-22.18,53.99-44.76,128.24-52.48C54.06,161.11-2.21,138.53.07,116.34c1.51-14.68,28.31-25.74,67.91-30.56C28.38,80.95,1.58,69.89.07,55.21-2.36,31.56,61.74,7.47,143.24,1.39c81.51-6.06,149.55,8.19,151.98,31.84.18,1.78-.01,3.56-.56,5.34h-53.42v32.86c-20.88,6.38-46.58,11.44-74.88,14.35,28.3,2.91,54,7.97,74.88,14.35v66.71c-4.28.75-8.76,1.41-13.42,1.99,4.66.58,9.14,1.24,13.42,1.99v33.4Z"/>
      <path class="cls-1" d="M796.7,90.57c-5.46-2.9-11.98-4.35-19.59-4.35-5.59,0-10.74.96-15.44,2.89-4.71,1.93-8.81,4.66-12.3,8.21-2.08,2.11-3.9,4.46-5.46,7.02l-.03-15.67h-28.69v98.83l-53.78-79.39,56.69-59.54h-38.25l-39.28,41.63-23.12,25.45V48.58h-31.81v40.09h-28.48l-18.31,55.64c-2.01,6.44-3.96,13.09-5.83,19.94-.2.74-.41,1.49-.61,2.25-.26-.98-.52-1.93-.77-2.86-1.77-6.48-3.65-12.89-5.63-19.23l-18.61-55.74h-31.66l39.68,105.55h32.78l37.43-99.7v99.7h31.81v-41.33l22.4-23.75,18.26,28.11,24.6,36.97h61.98v-59.02c0-5.25,1.03-9.67,3.09-13.25,2.06-3.58,4.73-6.23,8-7.95,3.27-1.72,6.73-2.58,10.38-2.58,3.92,0,7.21.71,9.87,2.12s4.68,3.5,6.06,6.24,2.07,6.18,2.07,10.3v64.13h29.51v-68.53c0-8.76-1.47-16.08-4.4-21.96-2.93-5.88-7.13-10.27-12.58-13.17Z"/>
      <rect class="cls-1" x="821.04" y="88.67" width="29.51" height="105.55"/>
      <rect class="cls-1" x="821.04" y="52.41" width="29.51" height="25.88"/>
      <path class="cls-1" d="M932.86,104.49c-2.82-4.54-6.31-8.33-10.49-11.36-6.36-4.6-14.14-6.9-23.35-6.9s-17.19,2.22-24.06,6.67c-6.87,4.45-12.18,10.77-15.93,18.95-3.75,8.18-5.63,17.71-5.63,28.59s1.87,20.46,5.6,28.66c3.73,8.2,9.04,14.52,15.93,18.97,6.89,4.45,14.92,6.67,24.09,6.67s17.15-2.33,23.52-6.98c3.72-2.72,6.88-6.05,9.51-9.95v15.45c0,5.39-.87,9.86-2.61,13.42s-4.36,6.22-7.85,7.98c-3.5,1.75-7.83,2.63-13.02,2.63-4.26,0-7.92-.61-10.97-1.82-3.05-1.21-5.46-3.04-7.24-5.47-1.77-2.44-2.86-5.5-3.27-9.18l-29.61-.05c.75,8.15,3.24,15.09,7.47,20.84,4.23,5.74,10.03,10.13,17.41,13.17,7.38,3.03,16.19,4.55,26.41,4.55,11.42,0,21.11-1.92,29.07-5.75,7.96-3.84,13.96-9.32,18-16.44s6.06-15.62,6.06-25.47v-103h-29.1l.03,15.81ZM921.22,168.58c-3.68,2.47-8.08,3.71-13.19,3.71s-9.51-1.2-13.19-3.61-6.51-5.97-8.49-10.69c-1.98-4.72-2.97-10.46-2.97-17.21s.99-12.49,2.97-17.31c1.98-4.82,4.82-8.51,8.52-11.07,3.7-2.56,8.07-3.84,13.12-3.84s9.57,1.25,13.27,3.73c3.7,2.49,6.53,6.11,8.49,10.87,1.96,4.76,2.94,10.48,2.94,17.16s-.99,12.53-2.97,17.34c-1.98,4.81-4.81,8.45-8.49,10.92Z"/>
      <path class="cls-1" d="M1110.44,81.46v-25.11h-29.51v32.32h-16.72v16.87c-.26-.61-.53-1.22-.82-1.81-2.93-5.88-7.13-10.27-12.58-13.17-5.46-2.9-11.98-4.35-19.59-4.35-5.59,0-10.71.96-15.37,2.89-4.65,1.93-8.7,4.66-12.15,8.21-1.84,1.89-3.47,3.98-4.91,6.24v-54.97h-29.51v145.65h29.51v-59.02c0-5.25,1.03-9.67,3.09-13.25,2.06-3.58,4.73-6.23,8-7.95,3.27-1.72,6.73-2.58,10.38-2.58,3.92,0,7.21.71,9.87,2.12s4.68,3.5,6.06,6.24,2.07,6.18,2.07,10.3v64.13h29.51v-68.53c0-5.32-.55-10.11-1.63-14.37h14.78v55.84c0,6.62,1.28,11.96,3.84,16.03,2.56,4.07,6.43,7.04,11.61,8.9,5.18,1.86,11.88,2.79,20.1,2.79,2.11,0,4.29-.04,6.55-.13,2.25-.09,4.5-.23,6.75-.44.21,0,.43-.02.69-.05.26-.03.5-.05.74-.05v-22.55h-8.69c-2.97,0-5.3-.26-7.01-.79-1.71-.53-2.98-1.46-3.81-2.79-.84-1.33-1.25-3.19-1.25-5.57v-51.19h20.76v-22.66h-20.76v-7.21Z"/>
      <rect class="cls-1" x="1152.24" y="163.44" width="33.65" height="30.79"/>
      <path class="cls-1" d="M462.55,93.12c-8.05-4.6-17.51-6.9-28.38-6.9s-20.33,2.3-28.46,6.9-14.41,11.09-18.85,19.46c-2.39,4.51-4.11,9.41-5.21,14.68.1-1.91.15-3.86.15-5.85,0-15.44-2.92-28.61-8.74-39.51-5.83-10.89-14.25-19.17-25.26-24.83-11.01-5.66-24.21-8.49-39.58-8.49h-56.97v145.65h56.66c15.44,0,28.69-2.84,39.74-8.51,11.05-5.68,19.5-13.96,25.37-24.85,3.42-6.36,5.84-13.5,7.27-21.4-.02.71-.05,1.42-.05,2.14,0,11.25,2.23,21.02,6.7,29.3,4.47,8.29,10.79,14.65,18.97,19.1,8.18,4.45,17.71,6.67,28.59,6.67,8.83,0,16.75-1.43,23.75-4.29,7.01-2.86,12.81-6.96,17.41-12.27,4.6-5.32,7.81-11.61,9.61-18.87l-27.87.05c-.99,2.97-2.48,5.5-4.47,7.59s-4.5,3.71-7.52,4.83c-3.02,1.12-6.5,1.69-10.46,1.69-5.52,0-10.25-1.08-14.19-3.25-3.94-2.17-6.94-5.41-9-9.74-1.7-3.57-2.69-7.82-2.99-12.73h78.5c.1-1.6.19-3.12.26-4.55s.1-2.78.1-4.04c0-10.77-2.17-20.31-6.5-28.61-4.33-8.3-10.52-14.75-18.56-19.36ZM343.93,146.61c-3.22,6.82-7.95,11.94-14.19,15.37s-13.84,5.14-22.81,5.14h-23.88v-91.44h23.88c9,0,16.61,1.71,22.83,5.14,6.22,3.43,10.94,8.54,14.17,15.34,3.22,6.8,4.83,15.21,4.83,25.24s-1.61,18.39-4.83,25.21ZM420.38,111.33c3.73-2.28,8.24-3.43,13.53-3.43s9.77,1.15,13.45,3.45,6.47,5.51,8.36,9.61c1.4,3.04,2.29,6.46,2.67,10.25h-49.23c.5-3.62,1.35-6.82,2.58-9.59,2.03-4.58,4.91-8.02,8.64-10.3Z"/>
    </g>
  </g>
</svg>